<?xml version="1.0" standalone="no"?>
<!-- Generator: Adobe Fireworks 10, Export SVG Extension by Aaron Beall (http://fireworks.abeall.com) . Version: 0.6.1  -->
<!DOCTYPE svg PUBLIC "-//W3C//DTD SVG 1.1//EN" "http://www.w3.org/Graphics/SVG/1.1/DTD/svg11.dtd">
<svg id="Logo-Page%201" viewBox="0 0 376 180" style="background-color:#ffffff00" version="1.1"
	xmlns="http://www.w3.org/2000/svg" xmlns:xlink="http://www.w3.org/1999/xlink" xml:space="preserve"
	x="0px" y="0px" width="376px" height="180px"
>
	<g id="Logo">
		<path d="M 155.92 89.5781 C 151.7013 93.8594 146.1075 96 139.1388 96 C 132.0919 96 126.5138 93.8594 122.4044 89.5781 C 118.2794 85.2969 116.2325 79.5938 116.2325 72.4531 C 116.2325 65.2656 118.2794 59.5625 122.4044 55.3438 C 126.5138 51.125 132.0919 49 139.1388 49 C 146.17 49 151.7794 51.125 155.9669 55.375 C 160.1388 59.625 162.2325 65.3281 162.2325 72.4531 C 162.2325 79.5938 160.1231 85.2969 155.92 89.5781 L 155.92 89.5781 ZM 174.4513 39.3125 C 165.2638 30.4375 153.5606 26 139.3731 26 C 125.2169 26 113.4981 30.5 104.1856 39.4844 C 94.8731 48.4688 90.2325 59.6563 90.2325 73.0469 C 90.2325 86.5 94.8575 97.6875 104.1075 106.6094 C 113.3575 115.5469 125.1075 120 139.3731 120 C 153.4981 120 165.1856 115.5469 174.4044 106.6094 C 183.6231 97.6875 188.2325 86.5 188.2325 73.0469 C 188.2325 59.4219 183.6388 48.1875 174.4513 39.3125 L 174.4513 39.3125 Z" fill="#0087cb"/>
		<path d="M 213.1406 29 L 187.5 29 L 187.5 117 L 213.5 117 L 213.5 78.4688 C 213.5 68.9531 215.1719 62.1563 218.5156 58.0938 C 221.8594 54.0313 227.3594 52 235 52 C 237.1094 52 239.125 52.25 241.0313 52.75 C 242.9375 53.25 246.8438 54 248.7188 55 L 250.5 27.1875 L 248.9063 26.9063 C 245.2656 26.3125 242.6563 26 241.0625 26 C 234.0625 26 228.2031 28.1094 223.4844 32.3125 C 218.75 36.5156 215.125 42.8438 212.5938 51.2969 L 213.1406 29 L 213.1406 29 Z" fill="#0087cb"/>
		<path d="M 273.7675 117 L 273.7675 49 L 285.7675 49 L 285.7675 29 L 273.7675 29 L 273.7675 0 L 247.7675 0 L 247.7675 29 L 235.7675 29 L 235.7675 49 L 247.7675 49 L 247.7675 117 L 273.7675 117 L 273.7675 117 Z" fill="#0087cb"/>
		<path d="M 342.7225 89.5781 C 338.5037 93.8594 332.91 96 325.9412 96 C 318.8943 96 313.3162 93.8594 309.2068 89.5781 C 305.0818 85.2969 303.035 79.5938 303.035 72.4531 C 303.035 65.2656 305.0818 59.5625 309.2068 55.3438 C 313.3162 51.125 318.8943 49 325.9412 49 C 332.9725 49 338.5818 51.125 342.7693 55.375 C 346.9412 59.625 349.035 65.3281 349.035 72.4531 C 349.035 79.5938 346.9256 85.2969 342.7225 89.5781 L 342.7225 89.5781 ZM 361.2537 39.3125 C 352.0662 30.4375 340.3631 26 326.1756 26 C 312.0193 26 300.3006 30.5 290.9881 39.4844 C 281.6756 48.4688 277.035 59.6563 277.035 73.0469 C 277.035 86.5 281.66 97.6875 290.91 106.6094 C 300.16 115.5469 311.91 120 326.1756 120 C 340.3006 120 351.9881 115.5469 361.2068 106.6094 C 370.4256 97.6875 375.035 86.5 375.035 73.0469 C 375.035 59.4219 370.4412 48.1875 361.2537 39.3125 L 361.2537 39.3125 Z" fill="#0087cb"/>
		<path d="M 29.6213 53.9375 C 33.5744 49.3125 38.9182 47 45.6525 47 C 52.6057 47 58.0588 49.2969 62.0275 53.8906 C 65.9807 58.4844 67.965 64.75 67.965 72.7188 C 67.965 80.7031 66.0119 86.9063 62.1213 91.3438 C 58.215 95.7813 52.7932 98 45.8244 98 C 38.8557 98 33.4182 95.7813 29.5275 91.3438 C 25.6213 86.9063 23.6838 80.7031 23.6838 72.7188 C 23.6838 64.8125 25.6525 58.5625 29.6213 53.9375 ZM -0.035 157 L 0 157 L 0 154 L 25.965 154 L 25.965 120 C 25.965 116.7188 25.8869 113.8125 25.7307 111.25 C 25.5744 108.6875 25.3557 106.3281 25.0588 104.1563 C 28.5119 109.625 32.6682 113.625 37.5432 116.1719 C 42.4025 118.7188 48.3244 120 55.3088 120 C 66.8713 120 76.215 115.7031 83.3088 107.1094 C 90.4025 98.5156 93.965 87.0938 93.965 72.8594 C 93.965 58.1094 90.4338 46.625 83.4025 38.375 C 76.3557 30.125 66.6057 26 54.1369 26 C 47.6838 26 42.0275 27.4531 37.1682 30.3281 C 32.3088 33.2031 28.215 37.5469 24.8713 43.3594 L 24.8713 29 L -0.035 29 L -0.035 157 ZM 25.965 157 L 25.965 154 L 0 154 L 0 157 L 25.965 157 ZM 25.965 157 L 0 157 L 0 170 L 26 170 L 26 154 L 25.965 154 L 25.965 157 Z" fill="#0087cb"/>
		<path id="Ellipse" d="M 312.0435 73.3636 C 312.0435 65.983 318.0389 60 325.4348 60 C 332.8307 60 338.8261 65.983 338.8261 73.3636 C 338.8261 80.7442 332.8307 86.7273 325.4348 86.7273 C 318.0389 86.7273 312.0435 80.7442 312.0435 73.3636 Z" fill="#0087cb"/>
		<path d="M 195.8594 164.875 C 195.1563 164.125 194.8125 163.0625 194.8125 161.6563 L 194.8125 148 L 201.875 148 L 201.875 145 L 194.8125 145 L 194.8125 139 L 192.6875 139 L 191.1563 144.5 L 187.6875 146.125 L 187.6875 148 L 191.1563 148 L 191.1563 161.875 C 191.1563 166.625 193.5 169 198.2031 169 C 198.8125 169 199.5 168.9375 200.2813 168.8125 C 201.0625 168.6875 201.6406 168.5313 202.0469 168.3438 L 202.0469 165.5625 C 201.6875 165.6719 201.2031 165.7656 200.5938 165.8594 C 199.9844 165.9531 199.3594 166 198.7188 166 C 197.5 166 196.5469 165.625 195.8594 164.875 L 195.8594 164.875 Z" fill="#666666"/>
		<path d="M 221.0313 168.6563 C 222.1563 168.4375 223.375 168.0625 224.6563 167.5313 L 224.6563 164.375 C 222.1563 165.4688 219.625 166 217.0625 166 C 214.625 166 212.7344 165.3281 211.3906 163.9688 C 210.0469 162.6094 209.3438 160.625 209.2813 158 L 225.6719 158 L 225.6719 155.7188 C 225.6719 152.5 224.7969 149.9219 223.0625 147.9531 C 221.3125 145.9844 218.9531 145 215.9688 145 C 212.7656 145 210.2188 146.1094 208.3281 148.2969 C 206.4375 150.5 205.5 153.4688 205.5 157.1875 C 205.5 160.9063 206.5156 163.7969 208.5469 165.875 C 210.5781 167.9688 213.375 169 216.9063 169 C 218.5156 169 219.8906 168.8906 221.0313 168.6563 L 221.0313 168.6563 ZM 220.25 149.8125 C 221.25 151.0156 221.7656 152.75 221.7656 155 L 209.3594 155 C 209.5469 152.8125 210.2188 151.1094 211.3594 149.8594 C 212.4844 148.625 214.0156 148 215.9219 148 C 217.7969 148 219.2344 148.6094 220.25 149.8125 L 220.25 149.8125 Z" fill="#666666"/>
		<path d="M 266.3438 169 L 266.3438 153.625 C 266.3438 150.625 265.6563 148.4375 264.2969 147.0625 C 262.9375 145.6875 260.8906 145 258.1563 145 C 256.4063 145 254.8438 145.3906 253.4688 146.1719 C 252.0938 146.9531 251.0625 148 250.3438 149.3438 L 250.1719 149.3438 C 249 146.4531 246.5313 145 242.75 145 C 241.1875 145 239.7656 145.3594 238.5156 146.0625 C 237.2656 146.7813 236.2813 147.75 235.5938 149 L 235.4219 149 L 234.8281 145 L 231.875 145 L 231.875 169 L 235.5156 169 L 235.5156 156.6094 C 235.5156 153.5625 236.0469 151.3594 237.1094 150.0156 C 238.1719 148.6719 239.8594 148 242.1563 148 C 243.9063 148 245.2031 148.4844 246.0313 149.4219 C 246.8438 150.3594 247.2656 151.7656 247.2656 153.6406 L 247.2656 169 L 250.9219 169 L 250.9219 155.8125 C 250.9219 153.1563 251.4531 151.2031 252.5469 149.9219 C 253.6406 148.6406 255.3281 148 257.625 148 C 259.3594 148 260.6406 148.4844 261.4688 149.4219 C 262.2813 150.3594 262.7031 151.7656 262.7031 153.6406 L 262.7031 169 L 266.3438 169 L 266.3438 169 Z" fill="#666666"/>
		<path d="M 292.75 165.8438 C 294.5469 163.75 295.4531 160.7969 295.4531 156.9844 C 295.4531 153.2031 294.5625 150.25 292.7969 148.1563 C 291.0313 146.0625 288.5156 145 285.2656 145 C 283.625 145 282.1719 145.2813 280.9063 145.8438 C 279.625 146.4063 278.5156 147.3281 277.5625 148.5938 L 277.3906 148.5938 L 276.8906 145 L 273.9219 145 L 273.9219 180 L 277.5625 180 L 277.5625 169.7344 C 277.5625 168.4375 277.4688 167.0625 277.2969 165.5938 L 277.5625 165.5938 C 278.4531 166.75 279.5625 167.6094 280.8906 168.1719 C 282.2031 168.7344 283.6719 169 285.2656 169 C 288.4531 169 290.9531 167.9531 292.75 165.8438 L 292.75 165.8438 ZM 289.8594 150.3125 C 291.0625 151.8438 291.6719 154.0469 291.6719 156.9219 C 291.6719 159.75 291.0625 161.9688 289.8594 163.5781 C 288.6406 165.2031 286.9844 166 284.8594 166 C 282.2969 166 280.4531 165.3125 279.2969 163.9063 C 278.1406 162.5156 277.5625 160.2031 277.5625 156.9531 L 277.5625 156.1875 C 277.5938 153.3438 278.1719 151.2656 279.2969 149.9531 C 280.4219 148.6563 282.2344 148 284.7656 148 C 286.9531 148 288.6406 148.7813 289.8594 150.3125 L 289.8594 150.3125 Z" fill="#666666"/>
		<path d="M 305.375 135 L 301.7344 135 L 301.7344 169 L 305.375 169 L 305.375 135 L 305.375 135 Z" fill="#666666"/>
		<path d="M 330.3594 169 L 330.3594 152.8906 C 330.3594 150.1406 329.6563 148.125 328.2813 146.875 C 326.9063 145.625 324.7813 145 321.9063 145 C 320.4844 145 319.0625 145.1875 317.6563 145.5469 C 316.25 145.9219 314.9531 146.4219 313.7656 147.0625 L 314.8906 149.8438 C 317.4219 148.625 319.6875 148 321.6875 148 C 323.4688 148 324.7656 148.4531 325.5781 149.3438 C 326.3906 150.25 326.7969 151.6406 326.7969 153.5156 L 326.7969 155 L 322.7188 155.125 C 314.9375 155.3438 311.0625 157.75 311.0625 162.3281 C 311.0625 164.4688 311.7344 166.1094 313.0938 167.2656 C 314.4375 168.4219 316.3125 169 318.7031 169 C 320.4844 169 321.9688 168.7813 323.1563 168.3125 C 324.3438 167.8594 325.5469 166.9844 326.7656 165.6719 L 326.9375 165.6719 L 327.6563 169 L 330.3594 169 L 330.3594 169 ZM 316.0781 165.1094 C 315.2813 164.5156 314.8906 163.6563 314.8906 162.5156 C 314.8906 161.0625 315.5313 159.9844 316.8125 159.2969 C 318.0938 158.6094 320.1719 158.2188 323.0781 158.125 L 326.7188 158 L 326.7188 159.875 C 326.7188 161.8125 326.0625 163.3281 324.7656 164.3906 C 323.4688 165.4688 321.6875 166 319.4375 166 C 318 166 316.875 165.7031 316.0781 165.1094 L 316.0781 165.1094 Z" fill="#666666"/>
		<path d="M 342.8594 164.875 C 342.1563 164.125 341.8125 163.0625 341.8125 161.6563 L 341.8125 148 L 348.875 148 L 348.875 145 L 341.8125 145 L 341.8125 139 L 339.6875 139 L 338.1563 144.5 L 334.6875 146.125 L 334.6875 148 L 338.1563 148 L 338.1563 161.875 C 338.1563 166.625 340.5 169 345.2031 169 C 345.8125 169 346.5 168.9375 347.2813 168.8125 C 348.0625 168.6875 348.6406 168.5313 349.0469 168.3438 L 349.0469 165.5625 C 348.6875 165.6719 348.2031 165.7656 347.5938 165.8594 C 346.9844 165.9531 346.3594 166 345.7188 166 C 344.5 166 343.5469 165.625 342.8594 164.875 L 342.8594 164.875 Z" fill="#666666"/>
		<path d="M 368.0313 168.6563 C 369.1563 168.4375 370.375 168.0625 371.6563 167.5313 L 371.6563 164.375 C 369.1563 165.4688 366.625 166 364.0625 166 C 361.625 166 359.7344 165.3281 358.3906 163.9688 C 357.0469 162.6094 356.3438 160.625 356.2813 158 L 372.6719 158 L 372.6719 155.7188 C 372.6719 152.5 371.7969 149.9219 370.0625 147.9531 C 368.3125 145.9844 365.9531 145 362.9688 145 C 359.7656 145 357.2188 146.1094 355.3281 148.2969 C 353.4375 150.5 352.5 153.4688 352.5 157.1875 C 352.5 160.9063 353.5156 163.7969 355.5469 165.875 C 357.5781 167.9688 360.375 169 363.9063 169 C 365.5156 169 366.8906 168.8906 368.0313 168.6563 L 368.0313 168.6563 ZM 367.25 149.8125 C 368.25 151.0156 368.7656 152.75 368.7656 155 L 356.3594 155 C 356.5469 152.8125 357.2188 151.1094 358.3594 149.8594 C 359.4844 148.625 361.0156 148 362.9219 148 C 364.7969 148 366.2344 148.6094 367.25 149.8125 L 367.25 149.8125 Z" fill="#666666"/>
	</g>
</svg>